<svg width="18" height="18" viewBox="0 0 18 18" fill="none" xmlns="http://www.w3.org/2000/svg">
<path d="M13.9583 5.45833V4.04167H12.5416V2.625H13.9583V1.20833H15.3749V2.625H16.7916V4.04167H15.3749V5.45833H13.9583ZM8.29159 12.8958C9.177 12.8958 9.92961 12.5859 10.5494 11.9661C11.1692 11.3464 11.4791 10.5937 11.4791 9.70833C11.4791 8.82292 11.1692 8.07031 10.5494 7.45052C9.92961 6.83073 9.177 6.52083 8.29159 6.52083C7.40617 6.52083 6.65356 6.83073 6.03377 7.45052C5.41398 8.07031 5.10409 8.82292 5.10409 9.70833C5.10409 10.5937 5.41398 11.3464 6.03377 11.9661C6.65356 12.5859 7.40617 12.8958 8.29159 12.8958ZM8.29159 11.4792C7.79575 11.4792 7.37665 11.308 7.03429 10.9656C6.69193 10.6233 6.52075 10.2042 6.52075 9.70833C6.52075 9.2125 6.69193 8.7934 7.03429 8.45104C7.37665 8.10868 7.79575 7.9375 8.29159 7.9375C8.78742 7.9375 9.20652 8.10868 9.54888 8.45104C9.89124 8.7934 10.0624 9.2125 10.0624 9.70833C10.0624 10.2042 9.89124 10.6233 9.54888 10.9656C9.20652 11.308 8.78742 11.4792 8.29159 11.4792ZM2.62492 15.375C2.23534 15.375 1.90183 15.2363 1.6244 14.9589C1.34697 14.6814 1.20825 14.3479 1.20825 13.9583V5.45833C1.20825 5.06875 1.34697 4.73524 1.6244 4.45781C1.90183 4.18038 2.23534 4.04167 2.62492 4.04167H4.85617L6.16659 2.625H11.1249V5.45833H12.5416V6.875H15.3749V13.9583C15.3749 14.3479 15.2362 14.6814 14.9588 14.9589C14.6813 15.2363 14.3478 15.375 13.9583 15.375H2.62492Z" fill="white"/>
</svg>
