<svg width="60" height="60" viewBox="0 0 60 60" fill="none" xmlns="http://www.w3.org/2000/svg">
<path d="M40 22.5C40.3333 22.5 40.625 22.375 40.875 22.125C41.125 21.875 41.25 21.5833 41.25 21.25V13.75C41.25 13.4167 41.125 13.125 40.875 12.875C40.625 12.625 40.3333 12.5 40 12.5C39.6667 12.5 39.375 12.625 39.125 12.875C38.875 13.125 38.75 13.4167 38.75 13.75V21.25C38.75 21.5833 38.875 21.875 39.125 22.125C39.375 22.375 39.6667 22.5 40 22.5ZM40 27.5C40.3333 27.5 40.625 27.375 40.875 27.125C41.125 26.875 41.25 26.5833 41.25 26.25C41.25 25.9167 41.125 25.625 40.875 25.375C40.625 25.125 40.3333 25 40 25C39.6667 25 39.375 25.125 39.125 25.375C38.875 25.625 38.75 25.9167 38.75 26.25C38.75 26.5833 38.875 26.875 39.125 27.125C39.375 27.375 39.6667 27.5 40 27.5ZM10 50C9.29167 50 8.69792 49.7604 8.21875 49.2812C7.73958 48.8021 7.5 48.2083 7.5 47.5C7.5 46.7917 7.73958 46.1979 8.21875 45.7187C8.69792 45.2396 9.29167 45 10 45H35C35.7083 45 36.3021 45.2396 36.7812 45.7187C37.2604 46.1979 37.5 46.7917 37.5 47.5C37.5 48.2083 37.2604 48.8021 36.7812 49.2812C36.3021 49.7604 35.7083 50 35 50H10ZM40 32.5C36.5417 32.5 33.5938 31.2812 31.1562 28.8437C28.7188 26.4062 27.5 23.4583 27.5 20C27.5 16.5417 28.7188 13.5937 31.1562 11.1562C33.5938 8.71875 36.5417 7.5 40 7.5C43.4583 7.5 46.4062 8.71875 48.8438 11.1562C51.2812 13.5937 52.5 16.5417 52.5 20C52.5 23.4583 51.2812 26.4062 48.8438 28.8437C46.4062 31.2812 43.4583 32.5 40 32.5ZM10 30C9.29167 30 8.69792 29.7604 8.21875 29.2812C7.73958 28.8021 7.5 28.2083 7.5 27.5C7.5 26.7917 7.73958 26.1979 8.21875 25.7187C8.69792 25.2396 9.29167 25 10 25H21.6875C22.3958 25 22.9896 25.2396 23.4688 25.7187C23.9479 26.1979 24.1875 26.7917 24.1875 27.5C24.1875 28.1667 23.9479 28.75 23.4688 29.25C22.9896 29.75 22.3958 30 21.6875 30H10ZM10 40C9.29167 40 8.69792 39.7604 8.21875 39.2812C7.73958 38.8021 7.5 38.2083 7.5 37.5C7.5 36.7917 7.73958 36.1979 8.21875 35.7187C8.69792 35.2396 9.29167 35 10 35H29.8125C30.5208 35 31.1146 35.2396 31.5938 35.7187C32.0729 36.1979 32.3125 36.7917 32.3125 37.5C32.3125 38.1667 32.0833 38.75 31.625 39.25C31.1667 39.75 30.5625 40 29.8125 40H10Z" fill="url(#paint0_linear_75_10751)"/>
<defs>
<linearGradient id="paint0_linear_75_10751" x1="8.01428" y1="8.93029" x2="59.5183" y2="27.6605" gradientUnits="userSpaceOnUse">
<stop stop-color="#0081AA"/>
<stop offset="1" stop-color="#00AA4F"/>
</linearGradient>
</defs>
</svg>
