<svg width="20" height="20" viewBox="0 0 20 20" fill="none" xmlns="http://www.w3.org/2000/svg">
<path d="M5.83325 12.5C5.13881 12.5 4.54853 12.2569 4.06242 11.7708C3.57631 11.2847 3.33325 10.6944 3.33325 10C3.33325 9.30556 3.57631 8.71528 4.06242 8.22917C4.54853 7.74306 5.13881 7.5 5.83325 7.5C6.5277 7.5 7.11797 7.74306 7.60409 8.22917C8.0902 8.71528 8.33325 9.30556 8.33325 10C8.33325 10.6944 8.0902 11.2847 7.60409 11.7708C7.11797 12.2569 6.5277 12.5 5.83325 12.5ZM5.83325 15C6.9027 15 7.86797 14.6944 8.72909 14.0833C9.5902 13.4722 10.1944 12.6667 10.5416 11.6667H10.8333L11.9166 12.75C11.9999 12.8333 12.0902 12.8924 12.1874 12.9271C12.2846 12.9618 12.3888 12.9792 12.4999 12.9792C12.611 12.9792 12.7152 12.9618 12.8124 12.9271C12.9096 12.8924 12.9999 12.8333 13.0833 12.75L14.1666 11.6667L15.6249 12.8125C15.7083 12.8819 15.802 12.934 15.9062 12.9688C16.0103 13.0035 16.118 13.0139 16.2291 13C16.3402 12.9861 16.4409 12.9549 16.5312 12.9062C16.6214 12.8576 16.7013 12.7917 16.7708 12.7083L18.6458 10.5625C18.7152 10.4792 18.7673 10.3889 18.802 10.2917C18.8367 10.1944 18.8541 10.0903 18.8541 9.97917C18.8541 9.86806 18.8333 9.76736 18.7916 9.67708C18.7499 9.58681 18.6944 9.50694 18.6249 9.4375L17.7708 8.58333C17.6874 8.5 17.5937 8.4375 17.4895 8.39583C17.3853 8.35417 17.2777 8.33333 17.1666 8.33333H10.5416C10.2083 7.38889 9.62145 6.59722 8.78117 5.95833C7.94089 5.31944 6.95825 5 5.83325 5C4.44436 5 3.26381 5.48611 2.29159 6.45833C1.31936 7.43056 0.833252 8.61111 0.833252 10C0.833252 11.3889 1.31936 12.5694 2.29159 13.5417C3.26381 14.5139 4.44436 15 5.83325 15Z" fill="#757575"/>
</svg>
