<svg width="28" height="28" viewBox="0 0 28 28" fill="none" xmlns="http://www.w3.org/2000/svg">
<path d="M6.82516 19.9497C7.81683 19.1913 8.92516 18.5934 10.1502 18.1559C11.3752 17.7184 12.6585 17.4997 14.0002 17.4997C15.3418 17.4997 16.6252 17.7184 17.8502 18.1559C19.0752 18.5934 20.1835 19.1913 21.1752 19.9497C21.8557 19.1525 22.3856 18.2483 22.7647 17.2372C23.1439 16.2261 23.3335 15.1469 23.3335 13.9997C23.3335 11.4136 22.4245 9.21148 20.6064 7.39342C18.7884 5.57537 16.5863 4.66634 14.0002 4.66634C11.4141 4.66634 9.21197 5.57537 7.39391 7.39342C5.57586 9.21148 4.66683 11.4136 4.66683 13.9997C4.66683 15.1469 4.85641 16.2261 5.23558 17.2372C5.61475 18.2483 6.14461 19.1525 6.82516 19.9497ZM14.0002 15.1663C12.8529 15.1663 11.8856 14.7726 11.0981 13.9851C10.3106 13.1976 9.91683 12.2302 9.91683 11.083C9.91683 9.93579 10.3106 8.96842 11.0981 8.18092C11.8856 7.39342 12.8529 6.99967 14.0002 6.99967C15.1474 6.99967 16.1147 7.39342 16.9022 8.18092C17.6897 8.96842 18.0835 9.93579 18.0835 11.083C18.0835 12.2302 17.6897 13.1976 16.9022 13.9851C16.1147 14.7726 15.1474 15.1663 14.0002 15.1663ZM14.0002 25.6663C12.3863 25.6663 10.8696 25.3601 9.45016 24.7476C8.03072 24.1351 6.796 23.3038 5.746 22.2538C4.696 21.2038 3.86475 19.9691 3.25225 18.5497C2.63975 17.1302 2.3335 15.6136 2.3335 13.9997C2.3335 12.3858 2.63975 10.8691 3.25225 9.44967C3.86475 8.03023 4.696 6.79551 5.746 5.74551C6.796 4.69551 8.03072 3.86426 9.45016 3.25176C10.8696 2.63926 12.3863 2.33301 14.0002 2.33301C15.6141 2.33301 17.1307 2.63926 18.5502 3.25176C19.9696 3.86426 21.2043 4.69551 22.2543 5.74551C23.3043 6.79551 24.1356 8.03023 24.7481 9.44967C25.3606 10.8691 25.6668 12.3858 25.6668 13.9997C25.6668 15.6136 25.3606 17.1302 24.7481 18.5497C24.1356 19.9691 23.3043 21.2038 22.2543 22.2538C21.2043 23.3038 19.9696 24.1351 18.5502 24.7476C17.1307 25.3601 15.6141 25.6663 14.0002 25.6663Z" fill="#3C3C42"/>
</svg>
