<svg width="18" height="18" viewBox="0 0 18 18" fill="none" xmlns="http://www.w3.org/2000/svg">
<path d="M14.85 16.9501L11.7 13.8376C11.2625 13.9751 10.8219 14.0782 10.3781 14.147C9.93438 14.2157 9.475 14.2501 9 14.2501C7.1125 14.2501 5.43125 13.7282 3.95625 12.6845C2.48125 11.6407 1.4125 10.2876 0.75 8.6251C1.0125 7.9626 1.34375 7.34697 1.74375 6.77822C2.14375 6.20947 2.6 5.7001 3.1125 5.2501L1.05 3.1501L2.1 2.1001L15.9 15.9001L14.85 16.9501ZM9 12.0001C9.1375 12.0001 9.26562 11.9938 9.38438 11.9813C9.50313 11.9688 9.63125 11.9438 9.76875 11.9063L5.71875 7.85635C5.68125 7.99385 5.65625 8.12197 5.64375 8.24072C5.63125 8.35947 5.625 8.4876 5.625 8.6251C5.625 9.5626 5.95312 10.3595 6.60938 11.0157C7.26563 11.672 8.0625 12.0001 9 12.0001ZM14.475 12.3376L12.0938 9.9751C12.1813 9.7626 12.25 9.54697 12.3 9.32822C12.35 9.10947 12.375 8.8751 12.375 8.6251C12.375 7.6876 12.0469 6.89072 11.3906 6.23447C10.7344 5.57822 9.9375 5.2501 9 5.2501C8.75 5.2501 8.51563 5.2751 8.29688 5.3251C8.07813 5.3751 7.8625 5.4501 7.65 5.5501L5.7375 3.6376C6.25 3.4251 6.775 3.26572 7.3125 3.15947C7.85 3.05322 8.4125 3.0001 9 3.0001C10.8875 3.0001 12.5688 3.52197 14.0438 4.56572C15.5188 5.60947 16.5875 6.9626 17.25 8.6251C16.9625 9.3626 16.5844 10.047 16.1156 10.6782C15.6469 11.3095 15.1 11.8626 14.475 12.3376ZM11.0063 8.8876L8.75625 6.6376C9.10625 6.5751 9.42813 6.60322 9.72188 6.72197C10.0156 6.84072 10.2688 7.0126 10.4813 7.2376C10.6938 7.4626 10.8469 7.72197 10.9406 8.01572C11.0344 8.30947 11.0563 8.6001 11.0063 8.8876Z" fill="#5F6368"/>
</svg>
