<svg width="132" height="88" viewBox="0 0 132 88" fill="none" xmlns="http://www.w3.org/2000/svg">
<path d="M130.631 73.564C130.235 73.564 129.9 73.4299 129.626 73.1617C129.353 72.8936 129.216 72.5658 129.216 72.1785C129.216 71.7911 129.353 71.4634 129.626 71.1952C129.9 70.927 130.235 70.793 130.631 70.793C131.011 70.793 131.331 70.927 131.589 71.1952C131.863 71.4634 132 71.7911 132 72.1785C132 72.5658 131.863 72.8936 131.589 73.1617C131.331 73.4299 131.011 73.564 130.631 73.564ZM131.635 75.5528V87.7988H129.558V75.5528H131.635Z" fill="white"/>
<path d="M113.358 81.631C113.358 80.3796 113.617 79.2846 114.134 78.346C114.652 77.3926 115.359 76.6551 116.257 76.1337C117.17 75.6123 118.182 75.3516 119.292 75.3516C120.388 75.3516 121.339 75.5825 122.145 76.0443C122.952 76.5061 123.553 77.0872 123.948 77.7874V75.5527H126.048V87.7987H123.948V85.5193C123.538 86.2344 122.921 86.8303 122.1 87.3071C121.293 87.7689 120.35 87.9998 119.27 87.9998C118.159 87.9998 117.155 87.7316 116.257 87.1953C115.359 86.659 114.652 85.9067 114.134 84.9383C113.617 83.9699 113.358 82.8675 113.358 81.631ZM123.948 81.6533C123.948 80.7297 123.758 79.9252 123.378 79.2399C122.997 78.5546 122.48 78.0332 121.826 77.6756C121.187 77.3032 120.479 77.117 119.703 77.117C118.927 77.117 118.22 77.2957 117.581 77.6533C116.942 78.0108 116.432 78.5322 116.052 79.2175C115.671 79.9028 115.481 80.7073 115.481 81.631C115.481 82.5696 115.671 83.3889 116.052 84.0891C116.432 84.7744 116.942 85.3033 117.581 85.6757C118.22 86.0333 118.927 86.2121 119.703 86.2121C120.479 86.2121 121.187 86.0333 121.826 85.6757C122.48 85.3033 122.997 84.7744 123.378 84.0891C123.758 83.3889 123.948 82.577 123.948 81.6533Z" fill="white"/>
<path d="M110.005 87.9331C109.609 87.9331 109.274 87.799 109 87.5309C108.727 87.2627 108.59 86.9349 108.59 86.5476C108.59 86.1603 108.727 85.8325 109 85.5644C109.274 85.2962 109.609 85.1621 110.005 85.1621C110.385 85.1621 110.705 85.2962 110.963 85.5644C111.237 85.8325 111.374 86.1603 111.374 86.5476C111.374 86.9349 111.237 87.2627 110.963 87.5309C110.705 87.799 110.385 87.9331 110.005 87.9331Z" fill="white"/>
<path d="M107.152 72.2227L101.971 81.9211V87.7983H99.8944V81.9211L94.6907 72.2227H96.9958L100.921 80.111L104.847 72.2227H107.152Z" fill="white"/>
<path d="M90.5048 87.7983L86.7161 81.4295H84.2056V87.7983H82.1287V72.2227H87.2639C88.4659 72.2227 89.4777 72.4238 90.2994 72.826C91.1362 73.2283 91.76 73.772 92.1708 74.4573C92.5817 75.1426 92.7871 75.9248 92.7871 76.8037C92.7871 77.8764 92.4676 78.8224 91.8285 79.6418C91.2047 80.4611 90.2613 81.0049 88.9984 81.2731L92.9925 87.7983H90.5048ZM84.2056 79.7982H87.2639C88.3898 79.7982 89.2343 79.53 89.7972 78.9937C90.3602 78.4425 90.6417 77.7125 90.6417 76.8037C90.6417 75.8801 90.3602 75.165 89.7972 74.6584C89.2495 74.1519 88.405 73.8987 87.2639 73.8987H84.2056V79.7982Z" fill="white"/>
<path d="M76.619 87.7983L72.8304 81.4295H70.3198V87.7983H68.2429V72.2227H73.3781C74.5802 72.2227 75.592 72.4238 76.4136 72.826C77.2505 73.2283 77.8743 73.772 78.2851 74.4573C78.6959 75.1426 78.9013 75.9248 78.9013 76.8037C78.9013 77.8764 78.5818 78.8224 77.9428 79.6418C77.3189 80.4611 76.3756 81.0049 75.1127 81.2731L79.1067 87.7983H76.619ZM70.3198 79.7982H73.3781C74.5041 79.7982 75.3485 79.53 75.9115 78.9937C76.4745 78.4425 76.756 77.7125 76.756 76.8037C76.756 75.8801 76.4745 75.165 75.9115 74.6584C75.3637 74.1519 74.5193 73.8987 73.3781 73.8987H70.3198V79.7982Z" fill="white"/>
<path d="M57.5133 87.9548C56.0374 87.9548 54.6908 87.6196 53.4736 86.9492C52.2563 86.2639 51.2901 85.3179 50.575 84.1112C49.8751 82.8896 49.5251 81.519 49.5251 79.9994C49.5251 78.4798 49.8751 77.1166 50.575 75.9099C51.2901 74.6883 52.2563 73.7423 53.4736 73.0719C54.6908 72.3866 56.0374 72.0439 57.5133 72.0439C59.0044 72.0439 60.3585 72.3866 61.5758 73.0719C62.793 73.7423 63.7516 74.6809 64.4515 75.8876C65.1514 77.0943 65.5014 78.4649 65.5014 79.9994C65.5014 81.5339 65.1514 82.9044 64.4515 84.1112C63.7516 85.3179 62.793 86.2639 61.5758 86.9492C60.3585 87.6196 59.0044 87.9548 57.5133 87.9548ZM57.5133 86.1894C58.624 86.1894 59.6206 85.9362 60.5031 85.4296C61.4008 84.9231 62.1007 84.2006 62.6028 83.262C63.1201 82.3234 63.3788 81.2359 63.3788 79.9994C63.3788 78.748 63.1201 77.6604 62.6028 76.7368C62.1007 75.7982 61.4084 75.0756 60.5259 74.5691C59.6434 74.0626 58.6392 73.8093 57.5133 73.8093C56.3873 73.8093 55.3831 74.0626 54.5006 74.5691C53.6181 75.0756 52.9182 75.7982 52.4009 76.7368C51.8988 77.6604 51.6477 78.748 51.6477 79.9994C51.6477 81.2359 51.8988 82.3234 52.4009 83.262C52.9182 84.2006 53.6181 84.9231 54.5006 85.4296C55.3983 85.9362 56.4025 86.1894 57.5133 86.1894Z" fill="white"/>
<path d="M42.5265 86.1447H48.0953V87.7983H40.4496V72.2227H42.5265V86.1447Z" fill="white"/>
<path d="M38.2589 72.2227L33.0781 81.9211V87.7983H31.0012V81.9211L25.7975 72.2227H28.1026L32.0282 80.111L35.9538 72.2227H38.2589Z" fill="white"/>
<path d="M23.5991 72.335V87.7989H21.5222V76.268L16.2729 87.7989H14.8122L9.54004 76.2456V87.7989H7.46313V72.335H9.6998L15.5425 85.1173L21.3853 72.335H23.5991Z" fill="white"/>
<path d="M41.7354 0.0974467C41.9387 0.0871829 42.1002 0.0666553 42.2618 0.0666553C45.8944 0.0666553 49.527 0.0666553 53.1543 0.0615234C53.4774 0.0615234 53.6703 0.143634 53.8475 0.436152C55.8123 3.67951 57.7875 6.9126 59.768 10.1457C61.6911 13.2864 63.6195 16.422 65.5426 19.5627C66.3765 20.9227 67.2103 22.2826 68.0234 23.658C68.2318 24.0121 68.4664 24.166 68.9042 24.166C73.9022 24.1506 78.9002 24.1198 83.8983 24.1917C84.9823 24.2071 85.5973 23.9351 86.1237 22.9754C87.3224 20.8046 88.6618 18.7108 89.9439 16.5862C91.226 14.4616 92.5133 12.337 93.7901 10.2124C95.1608 7.93385 96.5211 5.65529 97.8918 3.37673C98.4963 2.37088 99.1165 1.37529 99.7054 0.364305C99.867 0.0923148 100.096 0.102579 100.341 0.102579C102.468 0.102579 104.594 0.102579 106.72 0.102579C108.185 0.102579 109.649 0.112842 111.114 0.0974467C111.526 0.0923148 111.656 0.205217 111.656 0.626032C111.64 2.90972 111.656 5.19342 111.656 7.47711C111.661 9.99174 111.672 12.5064 111.682 15.0159C111.692 18.6031 111.708 22.1903 111.718 25.7774C111.718 26.4087 111.698 26.4343 111.041 26.4343C108.763 26.4343 106.486 26.4138 104.208 26.4189C99.4709 26.4189 94.7387 26.4446 90.0012 26.4446C75.0331 26.4549 60.0651 26.4549 45.097 26.46C40.224 26.46 35.3459 26.4651 30.4729 26.46C30.1393 26.46 29.983 26.5832 29.8579 26.8705C28.8781 29.1388 26.6214 30.1447 24.2501 29.3903C21.4775 28.5076 20.3934 24.8537 22.2488 22.6419C24.4794 19.9835 28.5341 20.5686 29.8735 23.7555C29.9986 24.0583 30.1706 24.1506 30.4937 24.1506C34.0273 24.1455 37.5608 24.1506 41.0996 24.1506C41.5339 24.1506 41.7511 23.9317 41.7511 23.4938C41.7511 15.9396 41.7511 8.38033 41.7511 0.826176C41.7511 0.600372 41.7511 0.369437 41.7511 0.10771L41.7354 0.0974467ZM23.7393 25.254C23.7289 26.3881 24.6201 27.2862 25.7615 27.2862C26.8455 27.2862 27.7836 26.3727 27.8045 25.2848C27.8201 24.2635 26.8507 23.2936 25.7928 23.2885C24.6775 23.2782 23.7498 24.166 23.7393 25.254Z" fill="white"/>
<path d="M48.37 48.6708C48.0885 48.6503 47.8749 48.6246 47.6664 48.6246C42.9446 48.6246 38.2227 48.6246 33.5009 48.64C33.1153 48.64 32.8755 48.522 32.641 48.2192C30.9732 46.0535 29.2794 43.9135 27.6117 41.753C27.398 41.4759 27.1843 41.3476 26.8299 41.3527C25.256 41.3681 23.682 41.3681 22.1081 41.3527C21.7954 41.3527 21.6807 41.4913 21.5765 41.7376C20.727 43.7185 18.9759 44.7295 16.8234 44.4832C15.0306 44.2779 13.4618 42.8102 13.1127 41.014C12.6749 38.7765 13.9934 36.6724 16.2553 36.0001C18.3557 35.3741 20.6749 36.4672 21.5192 38.5148C21.6912 38.9253 21.9048 39.0485 22.3374 39.0485C24.2553 39.028 26.1785 39.0485 28.0964 39.0382C28.3882 39.0382 28.5811 39.1306 28.753 39.3564C30.4156 41.5067 32.0938 43.6467 33.7459 45.8021C34.0169 46.1562 34.3035 46.3101 34.7726 46.3101C51.1895 46.2999 67.6065 46.3101 84.0234 46.3153C93.0136 46.3153 101.999 46.3307 110.989 46.3409C111.114 46.3409 111.239 46.346 111.364 46.3409C111.646 46.3358 111.76 46.4743 111.755 46.7463C111.745 47.085 111.745 47.4237 111.745 47.7676C111.765 52.0168 111.791 56.2711 111.812 60.5203C111.812 61.2439 111.802 61.2593 111.083 61.2593C107.023 61.2593 102.963 61.2542 98.9029 61.2696C98.4911 61.2696 98.4546 61.0695 98.4494 60.7667C98.4338 58.7293 98.4077 56.6919 98.3973 54.6546C98.3869 52.8995 98.3973 51.1495 98.3973 49.3944C98.3973 48.5887 98.3817 48.5836 97.5687 48.5887C93.4931 48.5989 89.4227 48.6143 85.3472 48.6246C84.9198 48.6246 84.4924 48.6246 84.0651 48.6143C83.7889 48.6041 83.6012 48.7067 83.4553 48.9479C82.3608 50.7543 81.256 52.5556 80.1667 54.3672C80.0208 54.6084 79.8801 54.7624 79.5674 54.7624C77.6338 54.7521 75.7003 54.7726 73.7667 54.747C73.5999 54.747 73.3758 54.5622 73.2768 54.4031C72.1302 52.5916 71.0149 50.7697 69.8631 48.9633C69.7641 48.8042 69.5035 48.6503 69.3159 48.6451C64.7452 48.6297 60.1745 48.6349 55.6038 48.6297C55.3068 48.6297 55.2025 48.7324 55.2025 49.0352C55.2025 52.4735 55.1973 55.9119 55.1869 59.3503C55.1869 59.8532 55.1713 60.3561 55.1869 60.859C55.1973 61.1772 55.0723 61.2799 54.7491 61.2799C52.3882 61.2696 50.0273 61.2799 47.6664 61.2799C45.8423 61.2799 44.0234 61.2696 42.1993 61.2799C41.8553 61.2799 41.7511 61.1772 41.7563 60.8385C41.7719 59.4118 41.7563 57.9852 41.7667 56.5585C41.7667 56.1685 41.6416 56.0248 41.2403 56.0402C40.6045 56.0659 39.9687 56.0556 39.3328 56.0402C39.0462 56.0351 38.8846 56.1274 38.7752 56.4046C37.884 58.6934 35.3094 59.8275 33.0006 58.8884C31.3433 58.2161 30.3947 56.9383 30.2592 55.1729C30.1342 53.541 30.8221 52.2221 32.1876 51.3035C33.7876 50.2258 35.8149 50.2873 37.3315 51.4369C37.9882 51.9295 38.4833 52.571 38.7648 53.3408C38.869 53.6282 39.0097 53.7565 39.3276 53.7565C40.9276 53.7462 42.5328 53.7668 44.1328 53.7411C44.3257 53.7411 44.5758 53.5974 44.7009 53.4435C45.8631 51.9757 47.0045 50.4926 48.1459 49.0146C48.2084 48.9325 48.2605 48.8401 48.37 48.6708ZM34.6527 56.887C35.768 56.887 36.6957 55.994 36.7009 54.9112C36.7113 53.8283 35.7576 52.8841 34.6527 52.8789C33.5322 52.8789 32.6045 53.7976 32.6097 54.9112C32.6097 56.0094 33.5218 56.887 34.6527 56.887ZM19.471 40.198C19.471 39.1203 18.5693 38.1915 17.5009 38.1812C16.3648 38.1709 15.4215 39.069 15.4058 40.1724C15.3902 41.2449 16.3752 42.2149 17.4697 42.2046C18.5329 42.1943 19.4658 41.2603 19.471 40.198Z" fill="white"/>
<path d="M66.439 33.8651C51.6221 33.8651 36.8052 33.8651 21.9882 33.8754C21.5452 33.8754 21.2638 33.7522 20.9876 33.3981C18.8612 30.6423 16.714 27.8967 14.5615 25.1614C14.4469 25.0177 14.2071 24.8946 14.0247 24.8894C12.4352 24.8689 10.8508 24.8894 9.26121 24.8689C8.93288 24.8689 8.77652 24.9715 8.65665 25.2743C7.98955 26.9422 6.33744 28.0712 4.53418 28.0404C2.68402 28.0096 1.29249 27.1475 0.515939 25.5001C-0.244973 23.899 -0.036504 22.3235 1.09965 20.9481C2.19933 19.619 3.66382 19.1109 5.3889 19.4342C6.96284 19.7319 8.03125 20.6659 8.65665 22.0925C8.79737 22.4107 8.96936 22.5134 9.30291 22.5134C11.2625 22.5031 13.2221 22.5134 15.1869 22.5031C15.4684 22.5031 15.6456 22.5955 15.8071 22.8059C17.9544 25.5822 20.1172 28.3483 22.2645 31.1298C22.4729 31.4018 22.697 31.5147 23.0567 31.5147C44.086 31.5147 65.1153 31.5147 86.1498 31.5198C94.4625 31.5198 102.775 31.525 111.088 31.5301C111.692 31.5301 111.729 31.5609 111.729 32.1408C111.729 32.577 111.724 33.0081 111.729 33.4443C111.729 33.6804 111.635 33.7984 111.39 33.7984C111.171 33.7984 110.947 33.8087 110.728 33.8087C105.866 33.8087 101.008 33.8087 96.1459 33.8087C86.2436 33.8087 76.3465 33.8087 66.4443 33.8087C66.4443 33.824 66.4443 33.8394 66.4443 33.8548L66.439 33.8651ZM2.51724 23.6834C2.51724 24.7663 3.42929 25.6849 4.53418 25.7054C5.57131 25.7259 6.5876 24.7201 6.57718 23.6886C6.56675 22.6622 5.59216 21.6974 4.56024 21.6871C3.4762 21.6769 2.51724 22.616 2.51724 23.6834Z" fill="white"/>
<path d="M77.9882 41.2704C67.0957 41.2704 56.198 41.2704 45.3055 41.2704C45.2482 41.2704 45.1961 41.2755 45.1387 41.2704C44.6592 41.2037 44.3987 41.3628 44.1798 41.8452C43.4293 43.5028 42.0482 44.406 40.2397 44.4265C37.6964 44.4522 35.7837 42.5534 35.768 40.0952C35.7472 36.9288 39.0619 34.7991 42.0586 36.159C43.0853 36.626 43.8462 37.3907 44.2371 38.4427C44.3882 38.843 44.5967 38.9456 44.9928 38.9456C48.0052 38.9354 51.0123 38.9405 54.0247 38.9405C66.3973 38.9405 78.77 38.9508 91.1426 38.9559C97.798 38.9559 104.453 38.9559 111.109 38.9559C111.724 38.9559 111.729 38.9559 111.734 39.5666C111.734 39.9874 111.734 40.4082 111.734 40.829C111.734 41.0959 111.609 41.2293 111.333 41.2293C110.947 41.2293 110.561 41.2345 110.171 41.2345C101.029 41.2345 91.8879 41.2345 82.7465 41.2396C81.157 41.2396 79.5726 41.2396 77.983 41.2396C77.983 41.2499 77.983 41.255 77.983 41.2653L77.9882 41.2704ZM40.1876 42.0812C41.2977 42.0761 42.2306 41.1626 42.2306 40.0849C42.2306 39.0123 41.2299 38.0424 40.1459 38.0578C39.0827 38.0732 38.1029 39.0585 38.1237 40.1003C38.1446 41.1831 39.0827 42.0864 40.1876 42.0812Z" fill="white"/>
</svg>
