<svg width="21" height="20" viewBox="0 0 21 20" fill="none" xmlns="http://www.w3.org/2000/svg">
<path d="M10.5001 18.3333C9.3473 18.3333 8.26397 18.1146 7.25008 17.6771C6.23619 17.2396 5.35425 16.6458 4.60425 15.8958C3.85425 15.1458 3.2605 14.2639 2.823 13.25C2.3855 12.2361 2.16675 11.1528 2.16675 9.99999C2.16675 8.83332 2.3855 7.74652 2.823 6.73957C3.2605 5.73263 3.85425 4.85416 4.60425 4.10416L5.77091 5.27082C5.1598 5.88193 4.68411 6.59027 4.34383 7.39582C4.00355 8.20138 3.83341 9.06943 3.83341 9.99999C3.83341 11.8611 4.47925 13.4375 5.77091 14.7292C7.06258 16.0208 8.63897 16.6667 10.5001 16.6667C12.3612 16.6667 13.9376 16.0208 15.2292 14.7292C16.5209 13.4375 17.1667 11.8611 17.1667 9.99999C17.1667 9.06943 16.9966 8.20138 16.6563 7.39582C16.3161 6.59027 15.8404 5.88193 15.2292 5.27082L16.3959 4.10416C17.1459 4.85416 17.7397 5.73263 18.1772 6.73957C18.6147 7.74652 18.8334 8.83332 18.8334 9.99999C18.8334 11.1528 18.6147 12.2361 18.1772 13.25C17.7397 14.2639 17.1459 15.1458 16.3959 15.8958C15.6459 16.6458 14.764 17.2396 13.7501 17.6771C12.7362 18.1146 11.6529 18.3333 10.5001 18.3333ZM9.66675 10.8333V1.66666H11.3334V10.8333H9.66675Z" fill="#757575"/>
</svg>
