<svg width="16" height="16" viewBox="0 0 16 16" fill="none" xmlns="http://www.w3.org/2000/svg">
<path d="M0.666748 13.9997L8.00008 1.33301L15.3334 13.9997H0.666748ZM8.00008 11.9997C8.18897 11.9997 8.3473 11.9358 8.47508 11.808C8.60286 11.6802 8.66675 11.5219 8.66675 11.333C8.66675 11.1441 8.60286 10.9858 8.47508 10.858C8.3473 10.7302 8.18897 10.6663 8.00008 10.6663C7.81119 10.6663 7.65286 10.7302 7.52508 10.858C7.3973 10.9858 7.33342 11.1441 7.33342 11.333C7.33342 11.5219 7.3973 11.6802 7.52508 11.808C7.65286 11.9358 7.81119 11.9997 8.00008 11.9997ZM7.33342 9.99967H8.66675V6.66634H7.33342V9.99967Z" fill="#EF663B"/>
</svg>
