<svg width="60" height="60" viewBox="0 0 60 60" fill="none" xmlns="http://www.w3.org/2000/svg">
<path d="M25 40H35C35.7083 40 36.3021 39.7604 36.7812 39.2812C37.2604 38.8021 37.5 38.2083 37.5 37.5V30C37.5 29.2917 37.2604 28.6979 36.7812 28.2188C36.3021 27.7396 35.7083 27.5 35 27.5V25C35 23.625 34.5104 22.4479 33.5312 21.4688C32.5521 20.4896 31.375 20 30 20C28.625 20 27.4479 20.4896 26.4688 21.4688C25.4896 22.4479 25 23.625 25 25V27.5C24.2917 27.5 23.6979 27.7396 23.2188 28.2188C22.7396 28.6979 22.5 29.2917 22.5 30V37.5C22.5 38.2083 22.7396 38.8021 23.2188 39.2812C23.6979 39.7604 24.2917 40 25 40ZM27.5 27.5V25C27.5 24.2917 27.7396 23.6979 28.2188 23.2188C28.6979 22.7396 29.2917 22.5 30 22.5C30.7083 22.5 31.3021 22.7396 31.7812 23.2188C32.2604 23.6979 32.5 24.2917 32.5 25V27.5H27.5ZM30 54.75C29.7083 54.75 29.4375 54.7292 29.1875 54.6875C28.9375 54.6458 28.6875 54.5833 28.4375 54.5C22.8125 52.625 18.3333 49.1562 15 44.0938C11.6667 39.0312 10 33.5833 10 27.75V15.9375C10 14.8958 10.3021 13.9583 10.9062 13.125C11.5104 12.2917 12.2917 11.6875 13.25 11.3125L28.25 5.6875C28.8333 5.47917 29.4167 5.375 30 5.375C30.5833 5.375 31.1667 5.47917 31.75 5.6875L46.75 11.3125C47.7083 11.6875 48.4896 12.2917 49.0938 13.125C49.6979 13.9583 50 14.8958 50 15.9375V27.75C50 33.5833 48.3333 39.0312 45 44.0938C41.6667 49.1562 37.1875 52.625 31.5625 54.5C31.3125 54.5833 31.0625 54.6458 30.8125 54.6875C30.5625 54.7292 30.2917 54.75 30 54.75ZM30 49.75C34.3333 48.375 37.9167 45.625 40.75 41.5C43.5833 37.375 45 32.7917 45 27.75V15.9375L30 10.3125L15 15.9375V27.75C15 32.7917 16.4167 37.375 19.25 41.5C22.0833 45.625 25.6667 48.375 30 49.75Z" fill="url(#paint0_linear_3_1227)"/>
<defs>
<linearGradient id="paint0_linear_3_1227" x1="10.4571" y1="7.03666" x2="90.2711" y2="21.6056" gradientUnits="userSpaceOnUse">
<stop stop-color="#0081AA"/>
<stop offset="1" stop-color="#3DFB66"/>
</linearGradient>
</defs>
</svg>
